<?xml version="1.0" standalone="no"?>
<!DOCTYPE svg PUBLIC "-//W3C//DTD SVG 20010904//EN"
 "http://www.w3.org/TR/2001/REC-SVG-20010904/DTD/svg10.dtd">
<svg version="1.0" xmlns="http://www.w3.org/2000/svg"
 width="260.000000pt" height="260.000000pt" viewBox="0 0 260.000000 260.000000"
 preserveAspectRatio="xMidYMid meet">
<metadata>
Created by potrace 1.11, written by Peter Selinger 2001-2013
</metadata>
<g transform="translate(0.000000,260.000000) scale(0.100000,-0.100000)"
fill="#000000" stroke="none">
<path d="M505 1595 c-5 -2 -23 -6 -38 -9 -16 -4 -32 -17 -39 -32 -10 -22 -8
-28 23 -60 l34 -35 0 -189 0 -189 -27 -28 c-16 -16 -28 -38 -28 -50 0 -41 24
-48 169 -48 114 0 141 3 164 18 35 23 34 47 -3 80 -22 20 -30 36 -30 61 0 71
22 59 132 -71 l69 -83 123 0 c106 0 127 3 147 19 21 16 22 22 11 45 -6 14 -23
32 -37 38 -32 15 -265 284 -265 307 0 41 106 131 154 131 43 0 69 20 64 50 -5
38 -42 50 -155 50 -100 0 -150 -10 -165 -33 -5 -7 -5 -30 -2 -52 5 -35 1 -46
-31 -87 -21 -26 -42 -45 -47 -42 -18 11 -2 93 22 119 30 32 21 69 -21 84 -29
10 -199 14 -224 6z"/>
<path d="M1564 1565 c-69 -90 -55 -195 26 -195 25 0 34 7 48 32 28 54 67 88
100 88 63 0 59 -13 -78 -251 -88 -151 -129 -232 -128 -249 l3 -25 280 -5 c176
-4 285 -2 293 4 27 20 56 91 56 142 1 64 -14 84 -65 84 -35 0 -41 -4 -58 -37
-10 -21 -27 -45 -37 -55 -36 -31 -134 -35 -134 -5 0 7 56 111 125 231 69 121
125 228 125 237 0 36 -20 39 -280 36 l-253 -2 -23 -30z"/>
<path d="M1274 1136 c-28 -28 -34 -42 -34 -75 0 -120 180 -154 227 -43 12 29
13 43 4 73 -16 54 -52 79 -113 79 -43 0 -54 -4 -84 -34z"/>
</g>
</svg>
