<?xml version="1.0" standalone="no"?>
<!DOCTYPE svg PUBLIC "-//W3C//DTD SVG 20010904//EN"
 "http://www.w3.org/TR/2001/REC-SVG-20010904/DTD/svg10.dtd">
<svg version="1.0" xmlns="http://www.w3.org/2000/svg"
 width="567.000000pt" height="567.000000pt" viewBox="0 0 567.000000 567.000000"
 preserveAspectRatio="xMidYMid meet">
<metadata>
Created by potrace 1.11, written by Peter Selinger 2001-2013
</metadata>
<g transform="translate(0.000000,567.000000) scale(0.100000,-0.100000)"
fill="#000000" stroke="none">
<path d="M2605 5454 c-222 -23 -477 -79 -660 -146 -138 -50 -382 -168 -500
-243 -327 -206 -630 -509 -840 -840 -185 -292 -322 -677 -377 -1060 -17 -119
-17 -541 0 -660 55 -383 192 -768 377 -1060 210 -331 513 -634 840 -840 118
-75 362 -193 500 -243 138 -50 353 -104 510 -128 171 -26 589 -26 760 0 157
24 372 78 510 128 138 50 382 168 500 243 327 206 630 509 840 840 185 292
322 677 377 1060 17 119 17 541 0 660 -70 483 -238 890 -524 1273 -83 111
-338 371 -445 456 -365 286 -789 469 -1253 541 -101 16 -520 29 -615 19z
m-1154 -1463 c90 -30 140 -60 202 -120 52 -49 147 -168 147 -184 0 -3 -18 -35
-40 -70 -39 -62 -234 -477 -227 -483 2 -2 23 24 47 59 168 238 468 566 620
680 90 67 184 113 250 122 128 18 284 -136 306 -301 l6 -51 -78 -27 c-338
-119 -707 -394 -944 -706 l-61 -80 41 -90 c148 -321 310 -542 495 -674 20 -15
20 -15 0 -51 -44 -84 -175 -166 -276 -173 -75 -6 -119 10 -169 60 -91 91 -168
262 -294 649 -42 128 -79 241 -82 249 -7 18 -26 -25 -103 -229 -70 -184 -128
-381 -171 -576 -17 -77 -33 -150 -35 -162 -5 -20 -6 -21 -52 -7 -129 38 -211
100 -295 222 l-30 44 25 56 c65 146 449 1128 485 1242 33 100 68 249 102 430
17 91 33 171 35 178 6 17 33 15 96 -7z m2221 -16 c190 -30 460 -61 683 -76
169 -12 574 -8 607 6 12 5 23 -3 41 -32 39 -61 55 -122 63 -232 6 -83 4 -101
-7 -101 -8 0 -81 -33 -164 -73 -457 -223 -880 -573 -1267 -1048 -172 -211
-166 -203 -142 -196 10 3 82 11 159 17 310 24 381 31 454 46 115 24 224 62
282 100 28 19 53 33 55 32 11 -11 47 -112 63 -176 40 -158 53 -357 25 -381 -5
-4 -76 -2 -159 5 -311 26 -647 14 -880 -32 -248 -48 -402 -113 -528 -222 -27
-23 -52 -42 -56 -42 -4 0 -15 24 -23 53 -9 28 -27 85 -42 124 -48 132 -33 227
47 307 28 28 78 87 111 131 221 300 600 686 969 988 141 116 326 256 437 332
l81 55 -189 0 c-344 0 -553 -26 -705 -86 -49 -20 -90 -34 -92 -32 -12 12 -35
139 -40 223 -10 154 19 335 54 335 6 0 79 -11 163 -25z m-1048 -1545 c81 -34
171 -98 215 -154 l30 -38 -29 -58 c-67 -133 -232 -262 -312 -245 -68 15 -136
63 -163 116 -11 20 -12 41 -5 90 8 54 60 272 76 318 7 21 103 6 188 -29z"/>
</g>
</svg>
